<?xml version="1.0" encoding="UTF-8" standalone="no"?>
<!DOCTYPE svg PUBLIC "-//W3C//DTD SVG 1.1//EN" "http://www.w3.org/Graphics/SVG/1.1/DTD/svg11.dtd">
<!-- Created with Linearity Curve (http://linearity.io/curve) -->
<svg height="1500.0px" stroke-miterlimit="10" style="fill-rule:nonzero;clip-rule:evenodd;stroke-linecap:round;stroke-linejoin:round;" version="1.1" viewBox="0 0 1500 1500" width="1500.0px" xml:space="preserve" xmlns="http://www.w3.org/2000/svg" xmlns:xlink="http://www.w3.org/1999/xlink">
<defs>
<linearGradient gradientTransform="matrix(626.723 -3.83453e-14 3.83453e-14 626.226 280.379 716.987)" gradientUnits="userSpaceOnUse" id="LinearGradient" x1="0" x2="1" y1="0" y2="0">
<stop offset="0" stop-color="#565d6c"/>
<stop offset="0.379976" stop-color="#1b1d22"/>
<stop offset="1" stop-color="#000000"/>
</linearGradient>
</defs>
<clipPath id="ArtboardFrame">
<rect height="1500" width="1500" x="0" y="0"/>
</clipPath>
<g clip-path="url(#ArtboardFrame)" id="Layer-1">
<path d="M2.27374e-13 0L1800 0L1800 1800L2.27374e-13 1800L2.27374e-13 0Z" fill="#ffffff" fill-rule="nonzero" opacity="1" stroke="none"/>
<g opacity="1">
<path d="M1236.87 961.065C1126.9 1004.81 944.924 1060.29 666.579 1060.29L239.597 1063.58L239.597 868.35L66.17 868.35L66.17 1258.8L666.579 1253.32C955.259 1253.32 1117.97 1202.77 1258.21 1164.04C1346.26 1138.26 1433.83 1106.49 1433.83 969.161L1433.83 616.093L1258.21 616.093L1258.21 933.007C1258.21 955.501 1240.53 959.609 1236.87 961.065Z" fill="#565d6c" fill-rule="nonzero" opacity="1" stroke="none"/>
<path d="M66.17 219.062L66.17 817.899L906.963 817.899L906.963 616.093L239.597 616.093L239.597 219.062L66.17 219.062Z" fill="#565d6c" fill-rule="nonzero" opacity="1" stroke="none"/>
<path d="M586.452 429.642L924.954 429.642L1256.01 429.642L1258.21 533.998L1431.63 533.998L1431.63 219.062L586.452 219.062L586.452 429.642Z" fill="#565d6c" fill-rule="nonzero" opacity="1" stroke="none"/>
<path d="M907.102 616.12L280.379 616.093L280.379 817.854L907.102 817.854L907.102 616.12Z" fill="url(#LinearGradient)" fill-rule="nonzero" opacity="1" stroke="none"/>
<path d="M953.569 1294.08L953.569 1399.37C953.569 1399.37 927.225 1399.38 914.053 1399.37C887.71 1399.37 874.173 1414 873.441 1443.25C873.075 1457.87 872.343 1489.1 872.343 1489.1L1296.03 1489.31C1296.03 1489.31 1296.03 1459.33 1296.03 1444.34C1296.03 1414.36 1282.49 1400.11 1255.42 1399.37C1228.34 1398.64 1213.5 1399.38 1213.5 1399.37L1213.64 1294.08C1213.64 1294.08 1213.72 1219.89 1213.72 1219.89C1126.59 1244.36 1062.63 1255.53 954.049 1271.49C954.049 1271.49 953.569 1294.08 953.569 1294.08Z" fill="#000000" fill-rule="nonzero" opacity="1" stroke="none"/>
<path d="M1213.65 913.32C1213.65 913.32 1213.49 875.69 1213.49 875.69L1213.49 466.881L953.544 466.881L953.544 900.185C953.544 900.185 953.469 997.502 953.469 997.502C991.292 997.502 1121.49 972.161 1204.15 931.622C1209.84 928.717 1213.49 928.702 1213.65 913.32Z" fill="#000000" fill-rule="nonzero" opacity="1" stroke="none"/>
<path d="M872.319 55.6428C872.319 85.6212 885.856 99.8793 912.932 100.61C940.007 101.342 954.841 100.61 954.841 100.61L954.841 194.043L1213.49 194.043L1214.78 100.61C1214.78 100.61 1241.13 100.61 1254.3 100.61C1280.64 100.61 1294.18 85.9868 1294.91 56.7396C1295.28 42.116 1296.01 10.8771 1296.01 10.8771L872.319 10.6752C872.319 10.6752 872.319 40.6536 872.319 55.6428Z" fill="#000000" fill-rule="nonzero" opacity="1" stroke="none"/>
<path d="M622.843 1444.36C622.843 1414.38 609.305 1400.12 582.23 1399.39C555.155 1398.66 540.321 1399.39 540.321 1399.39L539.422 1294.08L280.227 1294.08L280.379 1399.39C280.379 1399.39 254.036 1399.39 240.864 1399.39C214.521 1399.39 200.983 1414.01 200.251 1443.26C199.885 1457.88 199.154 1489.12 199.154 1489.12L622.843 1489.32C622.843 1489.32 622.843 1459.35 622.843 1444.36Z" fill="#000000" fill-rule="nonzero" opacity="1" stroke="none"/>
<path d="M539.579 1025.25L539.579 868.281L280.379 868.281L280.379 1025.25L539.579 1025.25Z" fill="#000000" fill-rule="nonzero" opacity="1" stroke="none"/>
<path d="M199.154 55.8447C199.154 85.8231 212.691 100.081 239.766 100.812C266.841 101.544 281.675 100.812 281.675 100.812L281.675 574.375L541.617 574.375L541.617 100.812C541.617 100.812 567.961 100.812 581.132 100.812C607.476 100.812 621.013 86.1887 621.745 56.9415C622.111 42.3179 622.843 11.079 622.843 11.079L199.154 10.8771C199.154 10.8771 199.154 40.8555 199.154 55.8447Z" fill="#000000" fill-rule="nonzero" opacity="1" stroke="none"/>
</g>
<text fill="#000000" font-family="GainsboroughSans-Regular" font-size="229" opacity="0" stroke="none" text-anchor="start" transform="matrix(1 0 0 1 339.838 1515.38)" x="0" y="0">
<tspan textLength="1108.32" x="0" y="183.155"><![CDATA[HOCKEY STOCK]]></tspan>
</text>
<g opacity="0">
<path d="M375.92 1698.54L349.007 1698.54L349.007 1570.73L375.92 1570.73L375.92 1624.29L402.721 1624.29L402.721 1570.73L429.634 1570.73L429.634 1698.54L402.721 1698.54L402.721 1651.13L375.92 1651.13L375.92 1698.54Z" fill="#000000" fill-rule="nonzero" opacity="1" stroke="none"/>
<path d="M505.551 1698.54L466.303 1698.54C464.583 1698.54 463.331 1698.48 462.546 1698.37C461.761 1698.26 460.808 1697.9 459.687 1697.31C458.565 1696.71 457.332 1695.74 455.986 1694.4L449.706 1688.25C448.361 1686.91 447.389 1685.68 446.791 1684.56C446.193 1683.44 445.838 1682.49 445.725 1681.71C445.613 1680.93 445.557 1679.68 445.557 1677.96L445.557 1591.42C445.557 1589.03 445.782 1587.17 446.23 1585.83C446.679 1584.48 447.837 1582.88 449.706 1581.02L455.986 1574.87C457.332 1573.53 458.565 1572.56 459.687 1571.96C460.808 1571.36 461.761 1571.01 462.546 1570.9C463.331 1570.79 464.583 1570.73 466.303 1570.73L505.551 1570.73C507.27 1570.73 508.522 1570.79 509.307 1570.9C510.092 1571.01 511.046 1571.36 512.167 1571.96C513.288 1572.56 514.522 1573.53 515.867 1574.87L522.035 1581.02C523.904 1582.88 525.063 1584.48 525.511 1585.83C525.96 1587.17 526.184 1589.03 526.184 1591.42L526.184 1677.96C526.184 1679.68 526.128 1680.93 526.016 1681.71C525.904 1682.49 525.549 1683.44 524.951 1684.56C524.353 1685.68 523.381 1686.91 522.035 1688.25L515.867 1694.4C514.522 1695.74 513.288 1696.71 512.167 1697.31C511.046 1697.9 510.092 1698.26 509.307 1698.37C508.522 1698.48 507.27 1698.54 505.551 1698.54ZM472.47 1667.68C472.47 1669.32 472.751 1670.4 473.311 1670.92C473.872 1671.44 474.975 1671.7 476.619 1671.7L495.234 1671.7C496.954 1671.7 498.075 1671.44 498.598 1670.92C499.122 1670.4 499.383 1669.32 499.383 1667.68L499.383 1601.7C499.383 1600.06 499.122 1598.96 498.598 1598.41C498.075 1597.85 496.954 1597.57 495.234 1597.57L476.619 1597.57C474.975 1597.57 473.872 1597.85 473.311 1598.41C472.751 1598.96 472.47 1600.06 472.47 1601.7L472.47 1667.68Z" fill="#000000" fill-rule="nonzero" opacity="1" stroke="none"/>
<path d="M593.691 1601.7C593.691 1600.06 593.429 1598.96 592.906 1598.41C592.383 1597.85 591.261 1597.57 589.542 1597.57L570.927 1597.57C569.282 1597.57 568.18 1597.85 567.619 1598.41C567.058 1598.96 566.778 1600.06 566.778 1601.7L566.778 1667.68C566.778 1669.32 567.058 1670.4 567.619 1670.92C568.18 1671.44 569.282 1671.7 570.927 1671.7L589.542 1671.7C591.261 1671.7 592.383 1671.44 592.906 1670.92C593.429 1670.4 593.691 1669.32 593.691 1667.68L593.691 1655.26L620.492 1655.26L620.492 1677.96C620.492 1679.68 620.436 1680.93 620.324 1681.71C620.211 1682.49 619.856 1683.44 619.258 1684.56C618.66 1685.68 617.688 1686.91 616.343 1688.25L610.175 1694.4C608.829 1695.74 607.596 1696.71 606.475 1697.31C605.353 1697.9 604.4 1698.26 603.615 1698.37C602.83 1698.48 601.578 1698.54 599.858 1698.54L560.61 1698.54C558.891 1698.54 557.639 1698.48 556.854 1698.37C556.069 1698.26 555.116 1697.9 553.994 1697.31C552.873 1696.71 551.639 1695.74 550.294 1694.4L544.014 1688.25C542.668 1686.91 541.696 1685.68 541.098 1684.56C540.5 1683.44 540.145 1682.49 540.033 1681.71C539.921 1680.93 539.865 1679.68 539.865 1677.96L539.865 1591.42C539.865 1589.03 540.089 1587.17 540.538 1585.83C540.986 1584.48 542.145 1582.88 544.014 1581.02L550.294 1574.87C551.639 1573.53 552.873 1572.56 553.994 1571.96C555.116 1571.36 556.069 1571.01 556.854 1570.9C557.639 1570.79 558.891 1570.73 560.61 1570.73L599.858 1570.73C601.578 1570.73 602.83 1570.79 603.615 1570.9C604.4 1571.01 605.353 1571.36 606.475 1571.96C607.596 1572.56 608.829 1573.53 610.175 1574.87L616.343 1581.02C618.212 1582.88 619.37 1584.48 619.819 1585.83C620.268 1587.17 620.492 1589.03 620.492 1591.42L620.492 1614L593.691 1614L593.691 1601.7Z" fill="#000000" fill-rule="nonzero" opacity="1" stroke="none"/>
<path d="M663.44 1698.54L636.527 1698.54L636.527 1570.73L663.44 1570.73L663.44 1624.51L667.702 1624.51L690.914 1570.73L722.425 1570.73L694.839 1634.91L722.425 1698.54L690.914 1698.54L667.702 1644.98L663.44 1644.98L663.44 1698.54Z" fill="#000000" fill-rule="nonzero" opacity="1" stroke="none"/>
<path d="M736.106 1698.54L736.106 1570.73L814.602 1570.73L814.602 1597.57L763.019 1597.57L763.019 1620.27L804.285 1620.27L804.285 1646.99L763.019 1646.99L763.019 1671.7L814.602 1671.7L814.602 1698.54L736.106 1698.54Z" fill="#000000" fill-rule="nonzero" opacity="1" stroke="none"/>
<path d="M930.776 1570.73L891.752 1643.3L891.752 1698.54L864.952 1698.54L864.952 1643.3L826.04 1570.73L858.896 1570.73L878.408 1606.96L897.696 1570.73L930.776 1570.73Z" fill="#000000" fill-rule="nonzero" opacity="1" stroke="none"/>
<path d="M1039.77 1652.25C1039.77 1650.61 1039.49 1649.51 1038.93 1648.95C1038.37 1648.39 1037.27 1648.11 1035.62 1648.11L1006.69 1648.11C1004.97 1648.11 1003.74 1648.07 1002.99 1648C1002.25 1647.92 1001.29 1647.59 1000.13 1646.99C998.975 1646.39 997.722 1645.42 996.377 1644.08L990.097 1637.82C988.751 1636.48 987.78 1635.25 987.182 1634.13C986.583 1633.01 986.228 1632.06 986.116 1631.28C986.004 1630.5 985.948 1629.25 985.948 1627.53L985.948 1601.7L1012.86 1601.7L1012.86 1617.25C1012.86 1618.89 1013.14 1619.99 1013.7 1620.55C1014.26 1621.1 1015.37 1621.38 1017.01 1621.38L1045.94 1621.38C1047.66 1621.38 1048.91 1621.44 1049.7 1621.55C1050.48 1621.66 1051.44 1622.02 1052.56 1622.61C1053.68 1623.21 1054.91 1624.18 1056.26 1625.52L1062.43 1631.67C1063.77 1633.01 1064.74 1634.24 1065.34 1635.36C1065.94 1636.48 1066.29 1637.43 1066.41 1638.21C1066.52 1638.99 1066.57 1640.24 1066.57 1641.96L1066.57 1677.96C1066.57 1679.68 1066.52 1680.93 1066.41 1681.71C1066.29 1682.49 1065.94 1683.44 1065.34 1684.56C1064.74 1685.68 1063.77 1686.91 1062.43 1688.25L1056.26 1694.4C1054.91 1695.74 1053.68 1696.71 1052.56 1697.31C1051.44 1697.9 1050.48 1698.26 1049.7 1698.37C1048.91 1698.48 1047.66 1698.54 1045.94 1698.54L1006.69 1698.54C1004.97 1698.54 1003.72 1698.48 1002.94 1698.37C1002.15 1698.26 1001.2 1697.9 1000.08 1697.31C998.956 1696.71 997.722 1695.74 996.377 1694.4L990.097 1688.25C988.751 1686.91 987.78 1685.68 987.182 1684.56C986.583 1683.44 986.228 1682.49 986.116 1681.71C986.004 1680.93 985.948 1679.68 985.948 1677.96L985.948 1655.26L1012.86 1655.26L1012.86 1667.68C1012.86 1669.32 1013.14 1670.4 1013.7 1670.92C1014.26 1671.44 1015.37 1671.7 1017.01 1671.7L1035.62 1671.7C1037.27 1671.7 1038.37 1671.44 1038.93 1670.92C1039.49 1670.4 1039.77 1669.32 1039.77 1667.68L1039.77 1652.25ZM1039.77 1601.7C1039.77 1600.06 1039.49 1598.96 1038.93 1598.41C1038.37 1597.85 1037.27 1597.57 1035.62 1597.57L1017.01 1597.57C1015.37 1597.57 1014.26 1597.85 1013.7 1598.41C1013.14 1598.96 1012.86 1600.06 1012.86 1601.7L985.948 1601.7L985.948 1591.42C985.948 1589.03 986.172 1587.17 986.621 1585.83C987.069 1584.48 988.228 1582.88 990.097 1581.02L996.377 1574.87C997.722 1573.53 998.956 1572.56 1000.08 1571.96C1001.2 1571.36 1002.15 1571.01 1002.94 1570.9C1003.72 1570.79 1004.97 1570.73 1006.69 1570.73L1045.94 1570.73C1047.66 1570.73 1048.91 1570.79 1049.7 1570.9C1050.48 1571.01 1051.44 1571.36 1052.56 1571.96C1053.68 1572.56 1054.91 1573.53 1056.26 1574.87L1062.43 1581.02C1064.29 1582.88 1065.45 1584.48 1065.9 1585.83C1066.35 1587.17 1066.57 1589.03 1066.57 1591.42L1066.57 1614L1039.77 1614L1039.77 1601.7Z" fill="#000000" fill-rule="nonzero" opacity="1" stroke="none"/>
<path d="M1158.64 1597.57L1131.73 1597.57L1131.73 1698.54L1104.93 1698.54L1104.93 1597.57L1078.01 1597.57L1078.01 1570.73L1158.64 1570.73L1158.64 1597.57Z" fill="#000000" fill-rule="nonzero" opacity="1" stroke="none"/>
<path d="M1229.96 1698.54L1190.71 1698.54C1188.99 1698.54 1187.74 1698.48 1186.95 1698.37C1186.17 1698.26 1185.22 1697.9 1184.1 1697.31C1182.97 1696.71 1181.74 1695.74 1180.39 1694.4L1174.11 1688.25C1172.77 1686.91 1171.8 1685.68 1171.2 1684.56C1170.6 1683.44 1170.25 1682.49 1170.13 1681.71C1170.02 1680.93 1169.97 1679.68 1169.97 1677.96L1169.97 1591.42C1169.97 1589.03 1170.19 1587.17 1170.64 1585.83C1171.09 1584.48 1172.25 1582.88 1174.11 1581.02L1180.39 1574.87C1181.74 1573.53 1182.97 1572.56 1184.1 1571.96C1185.22 1571.36 1186.17 1571.01 1186.95 1570.9C1187.74 1570.79 1188.99 1570.73 1190.71 1570.73L1229.96 1570.73C1231.68 1570.73 1232.93 1570.79 1233.72 1570.9C1234.5 1571.01 1235.45 1571.36 1236.58 1571.96C1237.7 1572.56 1238.93 1573.53 1240.28 1574.87L1246.44 1581.02C1248.31 1582.88 1249.47 1584.48 1249.92 1585.83C1250.37 1587.17 1250.59 1589.03 1250.59 1591.42L1250.59 1677.96C1250.59 1679.68 1250.54 1680.93 1250.42 1681.71C1250.31 1682.49 1249.96 1683.44 1249.36 1684.56C1248.76 1685.68 1247.79 1686.91 1246.44 1688.25L1240.28 1694.4C1238.93 1695.74 1237.7 1696.71 1236.58 1697.31C1235.45 1697.9 1234.5 1698.26 1233.72 1698.37C1232.93 1698.48 1231.68 1698.54 1229.96 1698.54ZM1196.88 1667.68C1196.88 1669.32 1197.16 1670.4 1197.72 1670.92C1198.28 1671.44 1199.38 1671.7 1201.03 1671.7L1219.64 1671.7C1221.36 1671.7 1222.48 1671.44 1223.01 1670.92C1223.53 1670.4 1223.79 1669.32 1223.79 1667.68L1223.79 1601.7C1223.79 1600.06 1223.53 1598.96 1223.01 1598.41C1222.48 1597.85 1221.36 1597.57 1219.64 1597.57L1201.03 1597.57C1199.38 1597.57 1198.28 1597.85 1197.72 1598.41C1197.16 1598.96 1196.88 1600.06 1196.88 1601.7L1196.88 1667.68Z" fill="#000000" fill-rule="nonzero" opacity="1" stroke="none"/>
<path d="M1318.1 1601.7C1318.1 1600.06 1317.84 1598.96 1317.31 1598.41C1316.79 1597.85 1315.67 1597.57 1313.95 1597.57L1295.34 1597.57C1293.69 1597.57 1292.59 1597.85 1292.03 1598.41C1291.47 1598.96 1291.19 1600.06 1291.19 1601.7L1291.19 1667.68C1291.19 1669.32 1291.47 1670.4 1292.03 1670.92C1292.59 1671.44 1293.69 1671.7 1295.34 1671.7L1313.95 1671.7C1315.67 1671.7 1316.79 1671.44 1317.31 1670.92C1317.84 1670.4 1318.1 1669.32 1318.1 1667.68L1318.1 1655.26L1344.9 1655.26L1344.9 1677.96C1344.9 1679.68 1344.84 1680.93 1344.73 1681.71C1344.62 1682.49 1344.26 1683.44 1343.67 1684.56C1343.07 1685.68 1342.1 1686.91 1340.75 1688.25L1334.58 1694.4C1333.24 1695.74 1332 1696.71 1330.88 1697.31C1329.76 1697.9 1328.81 1698.26 1328.02 1698.37C1327.24 1698.48 1325.99 1698.54 1324.27 1698.54L1285.02 1698.54C1283.3 1698.54 1282.05 1698.48 1281.26 1698.37C1280.48 1698.26 1279.52 1697.9 1278.4 1697.31C1277.28 1696.71 1276.05 1695.74 1274.7 1694.4L1268.42 1688.25C1267.08 1686.91 1266.1 1685.68 1265.51 1684.56C1264.91 1683.44 1264.55 1682.49 1264.44 1681.71C1264.33 1680.93 1264.27 1679.68 1264.27 1677.96L1264.27 1591.42C1264.27 1589.03 1264.5 1587.17 1264.95 1585.83C1265.39 1584.48 1266.55 1582.88 1268.42 1581.02L1274.7 1574.87C1276.05 1573.53 1277.28 1572.56 1278.4 1571.96C1279.52 1571.36 1280.48 1571.01 1281.26 1570.9C1282.05 1570.79 1283.3 1570.73 1285.02 1570.73L1324.27 1570.73C1325.99 1570.73 1327.24 1570.79 1328.02 1570.9C1328.81 1571.01 1329.76 1571.36 1330.88 1571.96C1332 1572.56 1333.24 1573.53 1334.58 1574.87L1340.75 1581.02C1342.62 1582.88 1343.78 1584.48 1344.23 1585.83C1344.68 1587.17 1344.9 1589.03 1344.9 1591.42L1344.9 1614L1318.1 1614L1318.1 1601.7Z" fill="#000000" fill-rule="nonzero" opacity="1" stroke="none"/>
<path d="M1387.85 1698.54L1360.94 1698.54L1360.94 1570.73L1387.85 1570.73L1387.85 1624.51L1392.11 1624.51L1415.32 1570.73L1446.83 1570.73L1419.25 1634.91L1446.83 1698.54L1415.32 1698.54L1392.11 1644.98L1387.85 1644.98L1387.85 1698.54Z" fill="#000000" fill-rule="nonzero" opacity="1" stroke="none"/>
</g>
<text fill="#000000" font-family="AvenirNext-Regular" font-size="83.8866" opacity="0" stroke="none" text-anchor="start" transform="matrix(1 0 0 1 -190.925 1968.27)" x="0" y="0">
<tspan textLength="923.759" x="629.191" y="83.8866"><![CDATA[Gainsborough Sans font]]></tspan>
<tspan textLength="2182.14" x="0" y="198.475"><![CDATA[Transition piece takes both colours and a gradient at 2/3s]]></tspan>
<tspan font-family="AvenirNext-Italic" textLength="1467.43" x="357.357" y="313.064"><![CDATA[(align with ‘d’ in ‘Solid’ in colour picker)]]></tspan>
</text>
</g>
</svg>
